<?xml version="1.0" encoding="utf-8"?>
<!-- Generator: Adobe Illustrator 16.0.0, SVG Export Plug-In . SVG Version: 6.00 Build 0)  -->
<!DOCTYPE svg PUBLIC "-//W3C//DTD SVG 1.1//EN" "http://www.w3.org/Graphics/SVG/1.1/DTD/svg11.dtd">
<svg version="1.1" id="Layer_1" xmlns="http://www.w3.org/2000/svg" xmlns:xlink="http://www.w3.org/1999/xlink" x="0px" y="0px"
	 width="501px" height="501px" viewBox="0 0 501 501" enable-background="new 0 0 501 501" xml:space="preserve">
<rect x="65.243" y="163" fill="#F1F3F6" width="370" height="209"/>
<circle fill="#DEDEDE" cx="413.97" cy="180.212" r="6.062"/>
<path fill="#DEDEDE" d="M267.243,180.506c0,4.139-3.355,7.494-7.494,7.494H87.737c-4.139,0-7.494-3.355-7.494-7.494v-0.013
	c0-4.139,3.355-7.494,7.494-7.494h172.012c4.139,0,7.494,3.355,7.494,7.494V180.506z"/>
<path fill="#DEDEDE" d="M267.243,291.506c0,4.139-3.355,7.494-7.494,7.494H87.737c-4.139,0-7.494-3.355-7.494-7.494v-0.012
	c0-4.139,3.355-7.494,7.494-7.494h172.012c4.139,0,7.494,3.355,7.494,7.494V291.506z"/>
<path fill="#DEDEDE" d="M218.243,266.5c0,4.143-3.358,7.5-7.5,7.5h-123c-4.142,0-7.5-3.357-7.5-7.5l0,0c0-4.142,3.358-7.5,7.5-7.5
	h123C214.885,259,218.243,262.358,218.243,266.5L218.243,266.5z"/>
<rect x="80.243" y="213" fill="#DEDEDE" width="154" height="36"/>
<rect x="266.243" y="213" fill="#DEDEDE" width="154" height="36"/>
<rect x="80.243" y="325" fill="#33495F" width="88" height="36"/>
<rect x="332.243" y="325" fill="#67B2E4" width="88" height="36"/>
</svg>
