<?xml version="1.0" encoding="utf-8"?>
<!-- Generator: Adobe Illustrator 16.0.0, SVG Export Plug-In . SVG Version: 6.00 Build 0)  -->
<!DOCTYPE svg PUBLIC "-//W3C//DTD SVG 1.1//EN" "http://www.w3.org/Graphics/SVG/1.1/DTD/svg11.dtd">
<svg version="1.1" id="Layer_1" xmlns="http://www.w3.org/2000/svg" xmlns:xlink="http://www.w3.org/1999/xlink" x="0px" y="0px"
	 width="631px" height="53.57px" viewBox="0 0 631 53.57" enable-background="new 0 0 631 53.57" xml:space="preserve">
<g>
	<g>
		<g>
			<path d="M756.887,845.711H731.61c-0.333,0-0.604,0.271-0.604,0.604v18.053c0,0.333,0.271,0.603,0.604,0.603h25.275
				c0.332,0,0.604-0.27,0.604-0.603v-18.053C757.488,845.981,757.219,845.711,756.887,845.711z M756.285,862.311l-7.456-7.455
				l-0.853,0.852l8.062,8.062h-23.58l8.06-8.062l-0.851-0.852l-7.457,7.455v-15.396h24.074V862.311L756.285,862.311z"/>
		</g>
	</g>
	<g>
		<g>
			<path d="M755.069,846.915l-10.82,10.818l-10.82-10.818h-1.218v0.485l11.612,11.609c0.233,0.233,0.616,0.233,0.85,0l11.612-11.609
				v-0.485H755.069z"/>
		</g>
	</g>
</g>
<g>
	<path d="M443.641,871.78l-6.771-4.878c-0.189-0.138-0.431-0.146-0.627-0.024c-0.197,0.124-0.318,0.357-0.318,0.613v9.752
		c0,0.256,0.122,0.49,0.318,0.616c0.092,0.056,0.194,0.083,0.295,0.083c0.115,0,0.229-0.038,0.332-0.108l6.771-4.879
		c0.178-0.128,0.284-0.351,0.284-0.587C443.924,872.13,443.817,871.907,443.641,871.78z M437.154,875.977v-7.218l5.009,3.608
		L437.154,875.977z"/>
	<path d="M456.234,856.34h-6.155h-22.157h-6.155c-0.34,0-0.613,0.312-0.613,0.697v7.665v7.665v7.666v7.665
		c0,0.385,0.273,0.694,0.613,0.694h6.155h22.157h6.155c0.34,0,0.612-0.312,0.612-0.694v-7.665v-7.666v-7.665v-7.665
		C456.849,856.651,456.575,856.34,456.234,856.34z M427.307,871.671h-4.924V865.4h4.924V871.671z M422.383,873.063h4.924v6.271
		h-4.924V873.063z M428.538,880.033v-7.666v-7.665v-6.97h20.926v6.97v7.665v7.666v6.968h-20.926V880.033z M455.619,871.671h-4.924
		V865.4h4.924V871.671z M450.695,873.063h4.924v6.271h-4.924V873.063z M455.619,857.733v6.271h-4.924v-6.271H455.619z
		 M422.383,857.733h4.924v6.271h-4.924V857.733z M422.383,887.001v-6.272h4.924v6.272H422.383z M455.619,887.001h-4.924v-6.272
		h4.924V887.001z"/>
</g>
<g>
	<path d="M391.871,892.804v-10.488c0-5.89-4.885-10.677-10.891-10.677c-6.004,0-10.891,4.787-10.891,10.677v10.488h-7.839v23.925
		v7.363h38.332v-7.363v-23.925H391.871z M371.833,882.313c0-4.871,4.104-8.836,9.147-8.836c5.045,0,9.148,3.965,9.148,8.836v10.489
		h-18.296V882.313z M398.841,922.252h-34.848v-3.681h34.848V922.252z M363.993,916.729v-22.082h6.098h21.78h6.97v22.082H363.993z"/>
	<path d="M381.417,900.164c-1.922,0-3.485,1.652-3.485,3.684v5.521c0,2.03,1.563,3.681,3.485,3.681s3.483-1.648,3.483-3.681v-5.521
		C384.9,901.817,383.339,900.164,381.417,900.164z M383.159,909.368c0,1.015-0.781,1.84-1.742,1.84s-1.742-0.825-1.742-1.84v-5.521
		c0-1.015,0.781-1.841,1.742-1.841s1.742,0.826,1.742,1.841V909.368z"/>
</g>
<g>
	<g>
		<path d="M559.956,841.295c0.253,0,0.458-0.206,0.458-0.458v-2.377c0-0.254-0.206-0.459-0.458-0.459h-26.713
			c-0.253,0-0.458,0.205-0.458,0.459v2.377c0,0.252,0.205,0.458,0.458,0.458h0.866v14.283h-0.866c-0.253,0-0.458,0.206-0.458,0.459
			v2.377c0,0.253,0.205,0.458,0.458,0.458h12.896v1.411l-5.001,5.093c-0.177,0.181-0.175,0.47,0.006,0.646
			c0.182,0.179,0.473,0.176,0.648-0.007l1.773-1.806h6.064l1.773,1.806c0.177,0.183,0.468,0.186,0.646,0.007
			c0.182-0.179,0.185-0.468,0.005-0.646l-5.001-5.093v-1.411h12.897c0.253,0,0.458-0.205,0.458-0.458v-2.377
			c0-0.253-0.206-0.459-0.458-0.459h-0.867v-14.283H559.956z M548.732,863.296h-4.268l2.133-2.17L548.732,863.296z M559.498,856.495
			v1.46h-25.797v-1.46h0.867h24.062H559.498z M535.026,855.578v-14.283h23.146v14.283H535.026z M533.701,840.378v-1.461h25.797
			v1.461C558.124,840.378,534.977,840.378,533.701,840.378z"/>
	</g>
</g>
<path d="M879.477,865.035l-5.979-5.555v-9.102h-6.894v2.701l-6.893-6.398l-19.762,18.354c-0.278,0.26-0.295,0.697-0.037,0.975
	c0.259,0.277,0.695,0.295,0.975,0.037l2.287-2.125v22.98h11.025h11.025h11.023v-22.98l2.288,2.125
	c0.132,0.123,0.301,0.182,0.47,0.182c0.188,0,0.368-0.072,0.505-0.219C879.771,865.733,879.755,865.295,879.477,865.035z
	 M867.981,851.76h4.135v6.441l-4.135-3.84V851.76z M855.577,885.526V871.01c0-0.354,0.29-0.645,0.646-0.645h6.979
	c0.354,0,0.646,0.289,0.646,0.645v14.518L855.577,885.526L855.577,885.526z M874.872,885.526h-9.647V871.01
	c0-1.115-0.905-2.021-2.022-2.021h-6.979c-1.115,0-2.021,0.905-2.021,2.021v14.518h-9.648v-22.885l15.16-14.076l9.842,9.137
	l3.942,3.66l0,0l1.377,1.277L874.872,885.526L874.872,885.526z"/>
<g>
	<g>
		<path d="M664.513,837.674l-3.152-0.533c-0.326-1.061-0.75-2.084-1.268-3.059l1.857-2.598c0.789-1.109,0.666-2.619-0.299-3.576
			l-2.799-2.795c-0.523-0.525-1.219-0.818-1.963-0.818c-0.58,0-1.133,0.18-1.602,0.516l-2.609,1.859
			c-1.012-0.533-2.07-0.977-3.172-1.303l-0.523-3.117c-0.227-1.34-1.381-2.316-2.738-2.316h-3.95c-1.359,0-2.514,0.979-2.739,2.316
			l-0.544,3.189c-1.051,0.33-2.072,0.762-3.049,1.283l-2.58-1.854c-0.469-0.338-1.032-0.52-1.613-0.52
			c-0.74,0-1.444,0.295-1.96,0.816l-2.807,2.797c-0.957,0.957-1.088,2.465-0.299,3.572l1.876,2.639
			c-0.518,0.988-0.928,2.006-1.248,3.068l-3.115,0.523c-1.341,0.227-2.315,1.381-2.315,2.74v3.949c0,1.361,0.976,2.514,2.315,2.738
			l3.189,0.547c0.329,1.049,0.761,2.071,1.287,3.047l-1.851,2.57c-0.787,1.107-0.666,2.615,0.301,3.572l2.796,2.795
			c0.524,0.525,1.22,0.816,1.959,0.816c0.584,0,1.138-0.178,1.605-0.516l2.635-1.879c0.947,0.498,1.944,0.902,2.967,1.223
			l0.524,3.15c0.226,1.346,1.38,2.316,2.738,2.316h3.962c1.357,0,2.514-0.973,2.738-2.316l0.533-3.15
			c1.062-0.326,2.084-0.748,3.061-1.27l2.598,1.859c0.473,0.338,1.033,0.514,1.613,0.514l0,0c0.744,0,1.438-0.291,1.963-0.814
			l2.795-2.795c0.959-0.957,1.088-2.467,0.301-3.574l-1.855-2.605c0.516-0.986,0.947-2.012,1.266-3.061l3.152-0.525
			c1.34-0.225,2.316-1.379,2.316-2.738v-3.949C666.829,839.053,665.854,837.901,664.513,837.674z M664.296,844.364
			c0,0.123-0.084,0.225-0.207,0.244l-3.938,0.654c-0.496,0.088-0.893,0.449-1.016,0.93c-0.355,1.381-0.898,2.705-1.631,3.932
			c-0.254,0.432-0.232,0.969,0.057,1.379l2.316,3.266c0.066,0.098,0.059,0.232-0.025,0.32l-2.801,2.795
			c-0.062,0.066-0.131,0.076-0.178,0.076c-0.055,0-0.102-0.02-0.139-0.047l-3.256-2.32c-0.402-0.289-0.947-0.307-1.38-0.055
			c-1.229,0.73-2.552,1.275-3.931,1.635c-0.489,0.119-0.854,0.521-0.93,1.012l-0.668,3.941c-0.02,0.121-0.123,0.209-0.242,0.209
			h-3.95c-0.123,0-0.225-0.088-0.244-0.209l-0.656-3.941c-0.084-0.497-0.449-0.893-0.931-1.012c-1.34-0.348-2.635-0.883-3.845-1.58
			c-0.198-0.105-0.423-0.168-0.64-0.168c-0.254,0-0.517,0.078-0.73,0.236l-3.284,2.336c-0.047,0.029-0.093,0.049-0.14,0.049
			c-0.039,0-0.113-0.01-0.179-0.074l-2.796-2.801c-0.082-0.082-0.096-0.213-0.028-0.315l2.309-3.237
			c0.291-0.412,0.312-0.953,0.059-1.388c-0.732-1.222-1.295-2.546-1.651-3.925c-0.132-0.479-0.526-0.842-1.013-0.928l-3.972-0.676
			c-0.119-0.02-0.204-0.121-0.204-0.242v-3.949c0-0.123,0.084-0.229,0.204-0.244l3.913-0.654c0.497-0.089,0.901-0.455,1.022-0.939
			c0.347-1.379,0.883-2.713,1.604-3.939c0.253-0.432,0.228-0.969-0.062-1.369l-2.337-3.285c-0.065-0.094-0.058-0.234,0.026-0.318
			l2.798-2.795c0.064-0.064,0.131-0.076,0.179-0.076c0.056,0,0.103,0.02,0.14,0.047l3.237,2.311
			c0.412,0.291,0.957,0.309,1.388,0.057c1.222-0.73,2.543-1.295,3.922-1.648c0.479-0.137,0.846-0.525,0.93-1.016l0.676-3.969
			c0.02-0.125,0.121-0.207,0.244-0.207h3.95c0.12,0,0.225,0.082,0.242,0.207l0.656,3.912c0.084,0.496,0.449,0.9,0.938,1.021
			c1.418,0.356,2.768,0.911,4.023,1.651c0.434,0.254,0.969,0.232,1.379-0.057l3.236-2.328c0.047-0.027,0.096-0.045,0.143-0.045
			c0.035,0,0.111,0.01,0.178,0.074l2.797,2.795c0.086,0.084,0.094,0.217,0.027,0.316l-2.316,3.256
			c-0.289,0.406-0.311,0.947-0.057,1.382c0.73,1.229,1.275,2.552,1.633,3.931c0.123,0.49,0.525,0.855,1.012,0.932l3.941,0.666
			c0.121,0.02,0.209,0.119,0.209,0.242v3.949h-0.014L664.296,844.364L664.296,844.364z"/>
		<path d="M644.36,832.692c-5.351,0-9.692,4.346-9.692,9.691s4.343,9.693,9.692,9.693c5.346,0,9.688-4.35,9.688-9.693
			C654.05,837.037,649.706,832.692,644.36,832.692z M644.36,849.543c-3.95,0-7.159-3.209-7.159-7.158c0-3.947,3.208-7.16,7.159-7.16
			c3.947,0,7.156,3.215,7.156,7.16C651.519,846.334,648.31,849.543,644.36,849.543z"/>
	</g>
</g>
<g>
	<g>
		<g>
			<path d="M712.781,839.162h-21.138c-0.217,0-0.392,0.176-0.392,0.392v15.656c0,0.217,0.175,0.392,0.392,0.392h21.138
				c0.216,0,0.392-0.175,0.392-0.392v-15.656C713.173,839.338,712.997,839.162,712.781,839.162z M712.39,854.82h-20.354v-14.874
				h20.354V854.82z"/>
			<path d="M693.993,854.035h12.523c0.219,0,0.394-0.175,0.394-0.393v-4.306h3.521c0.219,0,0.394-0.175,0.394-0.392v-7.827
				c0-0.22-0.175-0.394-0.394-0.394h-12.522c-0.217,0-0.394,0.174-0.394,0.394v4.305h-3.521c-0.217,0-0.394,0.176-0.394,0.393v7.827
				C693.602,853.861,693.776,854.035,693.993,854.035z M698.299,841.512h11.742v7.045h-3.131v-2.738
				c0-0.218-0.175-0.394-0.394-0.394h-8.22L698.299,841.512L698.299,841.512z M694.384,846.208h3.524h8.219v2.739v4.307h-11.743
				V846.208z"/>
		</g>
	</g>
</g>
<path d="M946.044,920.933l-16.18-16.181c2.687-3.585,4.299-8.016,4.299-12.825c0-11.836-9.628-21.463-21.462-21.463
	c-11.833,0-21.46,9.627-21.46,21.463c0,11.831,9.627,21.459,21.46,21.459c4.812,0,9.243-1.612,12.827-4.298l16.18,16.179
	L946.044,920.933z M893.283,891.927c0-10.708,8.711-19.417,19.418-19.417c10.705,0,19.417,8.709,19.417,19.417
	c0,10.706-8.712,19.416-19.417,19.416C901.994,911.343,893.283,902.633,893.283,891.927z M927.587,907.349
	c0.182-0.175,0.361-0.354,0.537-0.533c0.146-0.156,0.311-0.299,0.454-0.456l14.576,14.573l-1.447,1.447l-14.573-14.579
	C927.292,907.657,927.433,907.499,927.587,907.349z"/>
<g>
	<path d="M588.439,839.527c-1.42,0-2.579,1.154-2.579,2.579c0,1.421,1.156,2.575,2.579,2.575c1.422,0,2.58-1.154,2.58-2.575
		C591.019,840.683,589.861,839.527,588.439,839.527z M588.439,843.948c-1.017,0-1.843-0.827-1.843-1.842
		c0-1.018,0.826-1.846,1.843-1.846c1.016,0,1.842,0.828,1.842,1.846C590.281,843.12,589.455,843.948,588.439,843.948z"/>
	<path d="M593.37,837.174c-1.335-1.333-3.109-2.066-4.996-2.066c-1.886,0-3.66,0.733-4.994,2.066
		c-2.471,2.469-2.776,7.115-0.666,9.93l5.66,8.174l5.651-8.162C596.145,844.289,595.838,839.643,593.37,837.174z M593.428,846.685
		l-5.054,7.299l-5.062-7.312c-1.916-2.553-1.641-6.747,0.59-8.976c1.194-1.196,2.782-1.854,4.474-1.854s3.279,0.657,4.475,1.854
		C595.077,839.925,595.351,844.119,593.428,846.685z"/>
</g>
<g>
	<g>
		<g>
			<path d="M797.564,860.897h-3.424c-0.401,0-0.729,0.325-0.729,0.729c0,0.401,0.326,0.729,0.729,0.729h3.424
				c0.401,0,0.729-0.325,0.729-0.729S797.968,860.897,797.564,860.897z"/>
		</g>
	</g>
	<g>
		<g>
			<g>
				<path d="M812.638,842.101h-6.464v-3.647c0-0.402-0.326-0.729-0.729-0.729h-15.334c-0.403,0-0.729,0.326-0.729,0.729v3.647
					h-6.463c-1.341,0-2.432,1.092-2.432,2.434v11.676c0,1.341,1.091,2.432,2.432,2.432h6.463v7.065c0,0.403,0.325,0.729,0.729,0.729
					h15.334c0.4,0,0.729-0.324,0.729-0.729v-11.347c0-0.403-0.326-0.729-0.729-0.729h-15.334c-0.403,0-0.729,0.326-0.729,0.729
					v2.821h-6.463c-0.538,0-0.977-0.438-0.977-0.976v-11.676c0-0.538,0.438-0.978,0.977-0.978h3.246v2.791
					c0,0.403,0.326,0.729,0.728,0.729h21.771c0.401,0,0.728-0.325,0.728-0.729v-2.791h3.247c0.537,0,0.977,0.438,0.977,0.978v11.676
					c0,0.538-0.438,0.976-0.977,0.976h-3.975c-0.403,0-0.729,0.325-0.729,0.729s0.324,0.729,0.729,0.729h3.975
					c1.342,0,2.433-1.091,2.433-2.432v-11.676C815.068,843.191,813.979,842.101,812.638,842.101z M790.84,857.918
					c0-0.003,0-0.005,0-0.005c0-0.003,0-0.006,0-0.006v-2.819h13.877v9.892H790.84V857.918z M789.383,845.62h-1.76v-2.063h1.76
					V845.62z M804.717,845.62H790.84v-2.786c0-0.001,0-0.004,0-0.005c0-0.002,0-0.004,0-0.007v-3.646h13.877V845.62L804.717,845.62z
					 M807.935,845.62h-1.761v-2.063h1.761V845.62z"/>
			</g>
		</g>
		<g>
			<g>
				<circle cx="785.131" cy="849.596" r="0.918"/>
			</g>
		</g>
		<g>
			<g>
				<path d="M801.414,857.184h-7.271c-0.401,0-0.729,0.325-0.729,0.729s0.326,0.729,0.729,0.729h7.271
					c0.403,0,0.729-0.324,0.729-0.729C802.144,857.509,801.817,857.184,801.414,857.184z"/>
			</g>
		</g>
	</g>
</g>
<g id="Desktop_1_">
	<path d="M494.86,859.434h-2.034c-0.281,0-0.509,0.229-0.509,0.511c0,0.279,0.228,0.509,0.509,0.509h2.034
		c0.279,0,0.509-0.229,0.509-0.509C495.369,859.66,495.142,859.434,494.86,859.434z"/>
	<path d="M508.084,839.599h-28.482c-1.123,0-2.032,0.911-2.032,2.035v19.325c0,1.124,0.909,2.034,2.032,2.034h10.683v4.067h-1.019
		c-0.28,0-0.508,0.229-0.508,0.511c0,0.279,0.228,0.508,0.508,0.508h9.154c0.282,0,0.508-0.229,0.508-0.508
		c0-0.282-0.226-0.511-0.508-0.511h-1.017v-4.067h10.681c1.123,0,2.034-0.91,2.034-2.034v-19.325
		C510.119,840.51,509.208,839.599,508.084,839.599z M496.386,867.063h-5.085v-4.069h5.085V867.063z M509.102,860.959
		c0,0.562-0.457,1.017-1.017,1.017h-28.481c-0.562,0-1.018-0.452-1.018-1.017v-19.325c0-0.562,0.457-1.019,1.018-1.019h28.481
		c0.562,0,1.017,0.456,1.017,1.019V860.959z"/>
	<path d="M506.05,842.65h-24.414c-0.561,0-1.017,0.456-1.017,1.018v13.224c0,0.562,0.457,1.021,1.017,1.021h24.414
		c0.562,0,1.019-0.458,1.019-1.021v-13.224C507.067,843.106,506.611,842.65,506.05,842.65z M506.05,856.891h-24.414v-13.224h24.414
		V856.891z"/>
</g>
<g>
	<path d="M1079.436,1143.424l-13.283-13.285c2.206-2.941,3.527-6.582,3.527-10.531c0-9.72-7.904-17.625-17.623-17.625
		c-9.716,0-17.621,7.905-17.621,17.625c0,9.715,7.905,17.619,17.621,17.619c3.952,0,7.592-1.32,10.533-3.525l13.285,13.281
		L1079.436,1143.424z M1036.112,1119.606c0-8.791,7.15-15.943,15.942-15.943c8.791,0,15.943,7.152,15.943,15.943
		s-7.152,15.941-15.943,15.941C1043.265,1135.549,1036.112,1128.397,1036.112,1119.606z M1064.279,1132.27
		c0.148-0.145,0.298-0.291,0.439-0.438c0.121-0.129,0.255-0.244,0.373-0.373l11.971,11.967l-1.188,1.189l-11.966-11.975
		C1064.037,1132.524,1064.153,1132.393,1064.279,1132.27z"/>
	<path d="M983.895,1125.705l-5.15-4.785v-7.838h-5.938v2.327l-5.938-5.513l-17.023,15.809c-0.236,0.224-0.254,0.602-0.03,0.839
		c0.225,0.24,0.6,0.255,0.84,0.033l1.971-1.831v19.795h9.498h9.498h9.495v-19.795l1.971,1.831c0.114,0.104,0.26,0.157,0.405,0.157
		c0.159,0,0.316-0.064,0.435-0.19C984.148,1126.307,984.134,1125.929,983.895,1125.705z M973.992,1114.27h3.562v5.551l-3.562-3.309
		V1114.27z M963.308,1143.356v-12.505c0-0.308,0.25-0.556,0.558-0.556h6.01c0.311,0,0.557,0.248,0.557,0.556v12.505H963.308
		L963.308,1143.356z M979.928,1143.356h-8.31v-12.505c0-0.962-0.782-1.743-1.745-1.743h-6.01c-0.962,0-1.742,0.781-1.742,1.743
		v12.505h-8.312v-19.713l13.061-12.127l8.478,7.871l3.396,3.152l0,0l1.186,1.103L979.928,1143.356L979.928,1143.356z"/>
	<g>
		<g>
			<g>
				<path d="M882.178,1140.071h-3.518c-0.414,0-0.75,0.336-0.75,0.746c0,0.412,0.336,0.75,0.75,0.75h3.518
					c0.414,0,0.749-0.338,0.749-0.75C882.927,1140.406,882.592,1140.071,882.178,1140.071z"/>
			</g>
		</g>
		<g>
			<g>
				<g>
					<path d="M897.672,1120.748h-6.644v-3.751c0-0.413-0.335-0.749-0.75-0.749h-15.764c-0.414,0-0.748,0.336-0.748,0.749v3.751
						h-6.645c-1.378,0-2.499,1.121-2.499,2.499v12.002c0,1.377,1.121,2.499,2.499,2.499h6.645v7.265
						c0,0.413,0.334,0.747,0.748,0.747h15.764c0.415,0,0.75-0.334,0.75-0.747v-11.663c0-0.413-0.335-0.75-0.75-0.75h-15.764
						c-0.414,0-0.748,0.337-0.748,0.75v2.902h-6.645c-0.553,0-1.003-0.45-1.003-1.003v-12.002c0-0.553,0.45-1.001,1.003-1.001h3.337
						v2.869c0,0.413,0.336,0.748,0.748,0.748h22.377c0.413,0,0.749-0.335,0.749-0.748v-2.869h3.337c0.553,0,1.003,0.448,1.003,1.001
						v12.002c0,0.553-0.45,1.003-1.003,1.003h-4.086c-0.414,0-0.748,0.334-0.748,0.747s0.334,0.749,0.748,0.749h4.086
						c1.377,0,2.498-1.122,2.498-2.499v-12.002C900.17,1121.869,899.049,1120.748,897.672,1120.748z M875.265,1137.006
						c0-0.001,0-0.003,0-0.005s0-0.005,0-0.007v-2.896h14.268v10.165h-14.268V1137.006z M873.769,1124.366h-1.811v-2.12h1.811
						V1124.366z M889.53,1124.366h-14.268v-2.863c0-0.002,0-0.005,0-0.006c0-0.002,0-0.004,0-0.006v-3.746h14.268V1124.366z
						 M892.838,1124.366h-1.81v-2.12h1.81V1124.366z"/>
				</g>
			</g>
			<g>
				<g>
					<circle cx="869.396" cy="1128.453" r="0.944"/>
				</g>
			</g>
			<g>
				<g>
					<path d="M886.135,1136.252h-7.475c-0.414,0-0.75,0.334-0.75,0.747s0.336,0.749,0.75,0.749h7.475c0.415,0,0.75-0.336,0.75-0.749
						S886.55,1136.252,886.135,1136.252z"/>
				</g>
			</g>
		</g>
	</g>
	<g>
		<g>
			<g>
				<path d="M817.421,1122.74h-33.06c-0.437,0-0.786,0.309-0.786,0.689v20.742c0,0.382,0.352,0.691,0.786,0.691h33.06
					c0.436,0,0.785-0.312,0.785-0.691v-20.742C818.206,1123.049,817.854,1122.74,817.421,1122.74z M816.633,1141.813l-9.751-8.566
					l-1.112,0.976l10.544,9.263h-30.841l10.539-9.263l-1.107-0.976l-9.753,8.566v-17.689h31.481V1141.813L816.633,1141.813z"/>
			</g>
		</g>
		<g>
			<g>
				<path d="M815.043,1124.122l-14.151,12.431l-14.148-12.431h-1.592v0.558l15.185,13.341c0.311,0.271,0.807,0.271,1.114,0
					l15.185-13.341v-0.558H815.043z"/>
			</g>
		</g>
	</g>
	<g>
		<g>
			<g>
				<path d="M736.212,1123.111h-28.965c-0.297,0-0.537,0.237-0.537,0.534v21.459c0,0.293,0.24,0.531,0.537,0.531h28.965
					c0.297,0,0.536-0.238,0.536-0.531v-21.459C736.748,1123.35,736.509,1123.111,736.212,1123.111z M735.676,1144.563h-27.893
					v-20.383h27.893V1144.563z"/>
				<path d="M710.464,1143.492h17.165c0.295,0,0.538-0.24,0.538-0.537v-5.9h4.827c0.295,0,0.537-0.238,0.537-0.537v-10.727
					c0-0.296-0.242-0.536-0.537-0.536h-17.166c-0.296,0-0.537,0.24-0.537,0.536v5.9h-4.827c-0.295,0-0.535,0.237-0.535,0.534v10.729
					C709.929,1143.252,710.169,1143.492,710.464,1143.492z M716.363,1126.328h16.091v9.655h-4.287v-3.757
					c0-0.298-0.243-0.535-0.538-0.535h-11.266V1126.328z M711,1132.765h4.828h11.265v3.753v5.9H711V1132.765z"/>
			</g>
		</g>
	</g>
	<g>
		<g>
			<path d="M650.319,1132.188l-1.609-0.271c-0.168-0.541-0.383-1.062-0.646-1.562l0.946-1.325c0.402-0.566,0.34-1.339-0.15-1.825
				l-1.431-1.429c-0.269-0.27-0.623-0.416-1.001-0.416c-0.299,0-0.58,0.092-0.817,0.263l-1.332,0.949
				c-0.52-0.272-1.061-0.499-1.618-0.666l-0.269-1.592c-0.115-0.685-0.703-1.183-1.399-1.183h-2.016
				c-0.694,0-1.283,0.498-1.398,1.183l-0.277,1.631c-0.536,0.167-1.06,0.387-1.557,0.653l-1.318-0.946
				c-0.237-0.174-0.524-0.265-0.821-0.265c-0.381,0-0.738,0.147-1.002,0.416l-1.434,1.429c-0.488,0.488-0.556,1.26-0.151,1.823
				l0.956,1.349c-0.264,0.504-0.475,1.022-0.638,1.564l-1.59,0.27c-0.685,0.113-1.183,0.705-1.183,1.396v2.02
				c0,0.692,0.499,1.279,1.183,1.396l1.628,0.279c0.168,0.537,0.389,1.059,0.656,1.556l-0.944,1.312
				c-0.403,0.564-0.34,1.336,0.153,1.824l1.427,1.428c0.271,0.268,0.623,0.416,1.001,0.416c0.297,0,0.58-0.091,0.819-0.264
				l1.347-0.959c0.483,0.256,0.992,0.464,1.513,0.623l0.27,1.61c0.115,0.686,0.705,1.183,1.397,1.183h2.021
				c0.695,0,1.284-0.498,1.396-1.183l0.273-1.61c0.541-0.166,1.062-0.383,1.561-0.646l1.327,0.949
				c0.239,0.173,0.527,0.263,0.824,0.263l0,0c0.379,0,0.733-0.146,1.001-0.417l1.427-1.426c0.489-0.488,0.559-1.261,0.154-1.826
				l-0.949-1.33c0.266-0.504,0.484-1.027,0.646-1.562l1.607-0.27c0.688-0.113,1.186-0.703,1.186-1.396v-2.019
				C651.503,1132.895,651.005,1132.306,650.319,1132.188z M650.21,1135.604c0,0.062-0.043,0.114-0.104,0.125l-2.014,0.334
				c-0.255,0.047-0.455,0.229-0.518,0.477c-0.184,0.703-0.46,1.379-0.834,2.007c-0.129,0.22-0.119,0.493,0.03,0.704l1.182,1.667
				c0.034,0.048,0.028,0.118-0.014,0.163l-1.429,1.428c-0.032,0.033-0.065,0.037-0.092,0.037s-0.053-0.009-0.072-0.022l-1.659-1.185
				c-0.206-0.148-0.484-0.157-0.705-0.029c-0.627,0.374-1.305,0.652-2.006,0.834c-0.25,0.062-0.438,0.271-0.477,0.52l-0.34,2.012
				c-0.01,0.062-0.062,0.104-0.125,0.104h-2.018c-0.062,0-0.114-0.044-0.125-0.104l-0.336-2.012
				c-0.042-0.256-0.229-0.455-0.474-0.52c-0.685-0.177-1.346-0.449-1.964-0.805c-0.1-0.058-0.215-0.087-0.326-0.087
				c-0.13,0-0.263,0.04-0.373,0.118l-1.677,1.193c-0.023,0.016-0.048,0.025-0.071,0.025c-0.02,0-0.058-0.005-0.091-0.039
				l-1.427-1.43c-0.044-0.041-0.048-0.108-0.018-0.161l1.181-1.652c0.147-0.211,0.157-0.487,0.029-0.708
				c-0.375-0.624-0.663-1.3-0.845-2.004c-0.065-0.244-0.269-0.43-0.517-0.475l-2.026-0.347c-0.062-0.008-0.104-0.062-0.104-0.122
				v-2.018c0-0.062,0.043-0.115,0.104-0.124l1.997-0.335c0.255-0.044,0.46-0.23,0.523-0.479c0.176-0.703,0.45-1.387,0.816-2.014
				c0.13-0.22,0.116-0.493-0.032-0.697l-1.192-1.679c-0.033-0.047-0.029-0.119,0.014-0.163l1.428-1.427
				c0.033-0.034,0.067-0.038,0.093-0.038c0.026,0,0.053,0.012,0.071,0.023l1.652,1.179c0.21,0.147,0.488,0.158,0.708,0.028
				c0.624-0.374,1.298-0.661,2.001-0.846c0.245-0.065,0.432-0.268,0.475-0.517l0.347-2.025c0.009-0.062,0.062-0.104,0.124-0.104H641
				c0.062,0,0.114,0.043,0.125,0.104l0.336,1.997c0.041,0.253,0.229,0.46,0.479,0.521c0.722,0.183,1.413,0.465,2.055,0.844
				c0.221,0.129,0.493,0.119,0.704-0.029l1.65-1.188c0.023-0.017,0.05-0.024,0.073-0.024c0.021,0,0.059,0.005,0.09,0.038l1.43,1.428
				c0.043,0.043,0.047,0.11,0.015,0.162l-1.184,1.663c-0.149,0.207-0.157,0.482-0.029,0.704c0.374,0.628,0.651,1.302,0.834,2.007
				c0.062,0.249,0.269,0.437,0.519,0.475l2.012,0.341c0.062,0.011,0.104,0.062,0.104,0.122v2.02h-0.003L650.21,1135.604
				L650.21,1135.604z"/>
			<path d="M640.031,1129.647c-2.729,0-4.947,2.218-4.947,4.945c0,2.729,2.217,4.947,4.947,4.947c2.729,0,4.947-2.22,4.947-4.947
				S642.762,1129.647,640.031,1129.647z M640.031,1138.247c-2.019,0-3.655-1.638-3.655-3.653c0-2.015,1.638-3.654,3.655-3.654
				c2.017,0,3.653,1.641,3.653,3.654C643.686,1136.61,642.049,1138.247,640.031,1138.247z"/>
		</g>
	</g>
	<g>
		<path d="M565.959,1128.109c-1.694,0-3.076,1.38-3.076,3.073c0,1.696,1.381,3.077,3.076,3.077c1.696,0,3.076-1.381,3.076-3.077
			C569.035,1129.489,567.655,1128.109,565.959,1128.109z M565.959,1133.381c-1.211,0-2.197-0.986-2.197-2.197
			s0.985-2.195,2.197-2.195s2.196,0.984,2.196,2.195S567.171,1133.381,565.959,1133.381z"/>
		<path d="M571.84,1125.304c-1.592-1.593-3.708-2.47-5.958-2.47c-2.251,0-4.367,0.877-5.959,2.47
			c-2.946,2.943-3.312,8.485-0.792,11.843l6.751,9.75l6.741-9.735C575.151,1133.789,574.785,1128.247,571.84,1125.304z
			 M571.91,1136.647l-6.028,8.707l-6.039-8.722c-2.284-3.046-1.957-8.052,0.702-10.709c1.426-1.426,3.321-2.211,5.337-2.211
			c2.018,0,3.91,0.785,5.336,2.211C573.877,1128.581,574.204,1133.587,571.91,1136.647z"/>
	</g>
	<g>
		<g>
			<path d="M501.958,1127.97c0.169,0,0.308-0.139,0.308-0.309v-1.597c0-0.173-0.139-0.311-0.308-0.311h-17.95
				c-0.169,0-0.308,0.138-0.308,0.311v1.597c0,0.17,0.139,0.309,0.308,0.309h0.582v9.598h-0.582c-0.169,0-0.308,0.139-0.308,0.309
				v1.598c0,0.171,0.139,0.31,0.308,0.31h8.667v0.947l-3.359,3.422c-0.119,0.121-0.117,0.314,0.004,0.436
				c0.118,0.121,0.314,0.117,0.435-0.002l1.192-1.214h4.075l1.191,1.214c0.12,0.119,0.315,0.123,0.437,0.002
				c0.12-0.119,0.122-0.312,0.004-0.436l-3.361-3.422v-0.947h8.667c0.169,0,0.308-0.14,0.308-0.31v-1.598
				c0-0.17-0.139-0.309-0.308-0.309h-0.583v-9.598H501.958z M494.416,1142.752h-2.866l1.435-1.459L494.416,1142.752z
				 M501.651,1138.183v0.98h-17.335v-0.98h0.583h16.168H501.651z M485.206,1137.565v-9.597h15.554v9.597H485.206z M484.316,1127.354
				v-0.979h17.335v0.979C500.727,1127.354,485.173,1127.354,484.316,1127.354z"/>
		</g>
	</g>
	<g id="Desktop">
		<path d="M421.23,1141.62h-1.263c-0.176,0-0.314,0.141-0.314,0.314c0,0.177,0.141,0.316,0.314,0.316h1.263
			c0.176,0,0.314-0.141,0.314-0.316C421.546,1141.761,421.406,1141.62,421.23,1141.62z"/>
		<path d="M429.44,1129.311h-17.683c-0.696,0-1.263,0.564-1.263,1.264v11.996c0,0.694,0.565,1.262,1.263,1.262h6.63v2.525h-0.631
			c-0.176,0-0.313,0.143-0.313,0.314c0,0.175,0.139,0.316,0.313,0.316h5.684c0.175,0,0.313-0.144,0.313-0.316
			s-0.141-0.314-0.313-0.314h-0.633v-2.525h6.632c0.694,0,1.263-0.565,1.263-1.262v-11.996
			C430.703,1129.875,430.136,1129.311,429.44,1129.311z M422.177,1146.358h-3.154v-2.527h3.154V1146.358z M430.07,1142.569
			c0,0.348-0.283,0.629-0.63,0.629h-17.683c-0.348,0-0.632-0.281-0.632-0.629v-11.996c0-0.351,0.284-0.631,0.632-0.631h17.683
			c0.347,0,0.63,0.28,0.63,0.631V1142.569z"/>
		<path d="M428.176,1131.205h-15.153c-0.35,0-0.633,0.282-0.633,0.631v8.208c0,0.348,0.284,0.63,0.633,0.63h15.153
			c0.351,0,0.632-0.282,0.632-0.63v-8.208C428.809,1131.488,428.525,1131.205,428.176,1131.205z M428.176,1140.044h-15.153v-8.208
			h15.153V1140.044z"/>
	</g>
	<g>
		<path d="M351.395,1138.862l-3.105-1.803c-0.087-0.051-0.197-0.055-0.288-0.009c-0.09,0.045-0.146,0.132-0.146,0.228v3.604
			c0,0.094,0.056,0.18,0.146,0.228c0.042,0.021,0.089,0.028,0.136,0.028c0.053,0,0.106-0.014,0.152-0.039l3.105-1.803
			c0.08-0.047,0.129-0.129,0.129-0.217S351.475,1138.908,351.395,1138.862z M348.419,1140.412v-2.666l2.297,1.332L348.419,1140.412z
			"/>
		<path d="M357.169,1133.159h-2.821h-10.162h-2.822c-0.156,0-0.282,0.114-0.282,0.257v2.832v2.83v2.832v2.83
			c0,0.143,0.126,0.258,0.282,0.258h2.822h10.162h2.821c0.156,0,0.282-0.115,0.282-0.258v-2.83v-2.832v-2.83v-2.832
			C357.451,1133.274,357.325,1133.159,357.169,1133.159z M343.902,1138.823h-2.258v-2.317h2.258V1138.823z M341.646,1139.336h2.258
			v2.316h-2.258V1139.336z M344.468,1141.91v-2.832v-2.83v-2.574h9.597v2.574v2.83v2.832v2.572h-9.597V1141.91z M356.887,1138.823
			h-2.258v-2.317h2.258V1138.823z M354.629,1139.336h2.258v2.316h-2.258V1139.336z M356.887,1133.674v2.316h-2.258v-2.316H356.887z
			 M341.646,1133.674h2.258v2.316h-2.258V1133.674z M341.646,1144.483v-2.314h2.258v2.314H341.646z M356.887,1144.483h-2.258v-2.314
			h2.258V1144.483z"/>
	</g>
	<g>
		<path d="M285.752,1137.285v-2.503c0-1.404-1.165-2.547-2.599-2.547c-1.433,0-2.598,1.143-2.598,2.547v2.503h-1.87v5.709v1.756
			h9.145v-1.756v-5.709H285.752z M280.972,1134.782c0-1.162,0.979-2.108,2.182-2.108c1.204,0,2.183,0.946,2.183,2.108v2.503h-4.364
			L280.972,1134.782L280.972,1134.782z M287.415,1144.311h-8.314v-0.877h8.314V1144.311z M279.101,1142.994v-5.271h1.455h5.196
			h1.663v5.271H279.101z"/>
		<path d="M283.258,1139.041c-0.458,0-0.831,0.395-0.831,0.879v1.316c0,0.482,0.373,0.879,0.831,0.879s0.831-0.396,0.831-0.879
			v-1.316C284.089,1139.436,283.716,1139.041,283.258,1139.041z M283.674,1141.237c0,0.24-0.187,0.438-0.416,0.438
			s-0.416-0.197-0.416-0.438v-1.316c0-0.242,0.188-0.439,0.416-0.439c0.229,0,0.416,0.197,0.416,0.439V1141.237z"/>
	</g>
</g>
<path fill="#34495E" d="M342.332,47.505l-14.531-14.533c2.411-3.22,3.859-7.2,3.859-11.521c0-10.632-8.647-19.279-19.276-19.279
	c-10.631,0-19.276,8.647-19.276,19.279c0,10.626,8.646,19.274,19.276,19.274c4.32,0,8.303-1.445,11.521-3.857l14.533,14.53
	L342.332,47.505z M294.938,21.451c0-9.618,7.824-17.441,17.443-17.441c9.614,0,17.438,7.823,17.438,17.441
	c0,9.617-7.824,17.439-17.438,17.439C302.763,38.891,294.938,31.069,294.938,21.451z M325.752,35.304
	c0.163-0.158,0.323-0.317,0.481-0.48c0.132-0.142,0.277-0.268,0.408-0.408l13.093,13.09l-1.302,1.301l-13.088-13.097
	C325.487,35.581,325.613,35.438,325.752,35.304z"/>
<path fill="#34495E" d="M255.91,22.397l-5.15-4.784V9.774h-5.938v2.327l-5.938-5.512L221.86,22.397
	c-0.238,0.225-0.254,0.603-0.029,0.84c0.225,0.239,0.6,0.255,0.84,0.032l1.971-1.831v19.795h9.498h9.498h9.494V21.438l1.971,1.831
	c0.115,0.104,0.26,0.157,0.406,0.157c0.156,0,0.316-0.063,0.434-0.189C256.164,22.999,256.148,22.621,255.91,22.397z
	 M246.009,10.962h3.561v5.548l-3.561-3.306V10.962z M235.322,40.048V27.545c0-0.308,0.25-0.556,0.559-0.556h6.01
	c0.309,0,0.557,0.248,0.557,0.556v12.503H235.322L235.322,40.048z M251.943,40.048h-8.311V27.545c0-0.962-0.781-1.744-1.744-1.744
	h-6.01c-0.965,0-1.742,0.782-1.742,1.744v12.503h-8.312v-19.71L238.885,8.21l8.479,7.872l3.396,3.152l0,0l1.186,1.103
	L251.943,40.048L251.943,40.048z"/>
<g>
	<g>
		<g>
			<path fill="#34495E" d="M170.004,37.021h-3.52c-0.414,0-0.75,0.336-0.75,0.747c0,0.413,0.336,0.749,0.75,0.749h3.52
				c0.414,0,0.748-0.336,0.748-0.749C170.752,37.357,170.418,37.021,170.004,37.021z"/>
		</g>
	</g>
	<g>
		<g>
			<g>
				<path fill="#34495E" d="M185.498,17.699h-6.645v-3.751c0-0.413-0.334-0.749-0.75-0.749h-15.762
					c-0.414,0-0.748,0.336-0.748,0.749v3.751h-6.646c-1.377,0-2.498,1.121-2.498,2.499V32.2c0,1.377,1.121,2.499,2.498,2.499h6.646
					v7.265c0,0.413,0.334,0.747,0.748,0.747h15.762c0.416,0,0.75-0.334,0.75-0.747V30.301c0-0.415-0.334-0.751-0.75-0.751h-15.762
					c-0.414,0-0.748,0.336-0.748,0.751v2.902h-6.646c-0.553,0-1.002-0.45-1.002-1.003V20.198c0-0.554,0.449-1.001,1.002-1.001h3.338
					v2.868c0,0.413,0.338,0.748,0.748,0.748h22.377c0.412,0,0.748-0.335,0.748-0.748v-2.868h3.339c0.554,0,1.003,0.447,1.003,1.001
					V32.2c0,0.553-0.449,1.003-1.003,1.003h-4.087c-0.413,0-0.747,0.334-0.747,0.747s0.334,0.749,0.747,0.749h4.087
					c1.378,0,2.497-1.122,2.497-2.499V20.198C187.996,18.821,186.875,17.699,185.498,17.699z M163.09,33.957
					c0-0.001,0-0.003,0-0.005s0-0.005,0-0.007v-2.896h14.266v10.165H163.09V33.957z M161.594,21.318h-1.812v-2.12h1.812V21.318z
					 M177.355,21.318H163.09v-2.863c0-0.002,0-0.005,0-0.006c0-0.002,0-0.004,0-0.006v-3.746h14.266V21.318z M180.664,21.318h-1.811
					v-2.12h1.811V21.318z"/>
			</g>
		</g>
		<g>
			<g>
				<circle fill="#34495E" cx="157.223" cy="25.404" r="0.944"/>
			</g>
		</g>
		<g>
			<g>
				<path fill="#34495E" d="M173.961,33.203h-7.477c-0.414,0-0.75,0.334-0.75,0.747s0.336,0.749,0.75,0.749h7.477
					c0.414,0,0.75-0.336,0.75-0.749S174.375,33.203,173.961,33.203z"/>
			</g>
		</g>
	</g>
</g>
<g>
	<g>
		<g>
			<path fill="#34495E" d="M127.644,17.797h-27.032c-0.354,0-0.644,0.251-0.644,0.562v16.854c0,0.31,0.288,0.562,0.644,0.562h27.032
				c0.354,0,0.642-0.251,0.642-0.562V18.36C128.285,18.048,127.998,17.797,127.644,17.797z M127,33.293l-7.975-6.96l-0.909,0.793
				l8.62,7.525H101.52l8.618-7.525l-0.907-0.793l-7.976,6.96V18.92h25.743L127,33.293L127,33.293z"/>
		</g>
	</g>
	<g>
		<g>
			<path fill="#34495E" d="M125.699,18.92l-11.572,10.1l-11.57-10.1h-1.302v0.453l12.416,10.839c0.253,0.219,0.659,0.219,0.909,0
				l12.417-10.839V18.92H125.699z"/>
		</g>
	</g>
</g>
<g>
	<g>
		<g>
			<path fill="#34495E" d="M68.949,22.815H48.777c-0.207,0-0.374,0.138-0.374,0.307v12.262c0,0.167,0.167,0.305,0.374,0.305h20.172
				c0.207,0,0.374-0.137,0.374-0.305V23.121C69.323,22.952,69.155,22.815,68.949,22.815z M68.576,35.074H49.151V23.428h19.425
				V35.074z"/>
			<path fill="#34495E" d="M51.018,34.461h11.955c0.205,0,0.374-0.137,0.374-0.307v-3.372h3.362c0.205,0,0.373-0.137,0.373-0.308
				v-6.129c0-0.169-0.168-0.306-0.373-0.306H54.754c-0.207,0-0.375,0.137-0.375,0.306v3.372h-3.361
				c-0.206,0-0.373,0.137-0.373,0.307v6.131C50.646,34.324,50.812,34.461,51.018,34.461z M55.127,24.655h11.205v5.517h-2.985v-2.146
				c0-0.17-0.169-0.307-0.374-0.307h-7.846V24.655z M51.392,28.331h3.362h7.845v2.145v3.372H51.392V28.331z"/>
		</g>
	</g>
</g>
<g>
	<g>
		<path fill="#34495E" d="M21.252,28.573l-1.129-0.191c-0.117-0.379-0.269-0.746-0.453-1.094l0.666-0.933
			c0.281-0.396,0.237-0.938-0.107-1.28l-1.002-1.003c-0.188-0.188-0.438-0.292-0.703-0.292c-0.209,0-0.407,0.063-0.575,0.185
			l-0.935,0.666c-0.363-0.191-0.743-0.35-1.137-0.467l-0.188-1.116c-0.081-0.481-0.494-0.831-0.982-0.831h-1.414
			c-0.487,0-0.901,0.35-0.981,0.831l-0.195,1.143c-0.377,0.117-0.743,0.271-1.092,0.46L10.1,23.985
			c-0.168-0.122-0.369-0.186-0.577-0.186c-0.267,0-0.519,0.104-0.704,0.292l-1.005,1.001c-0.343,0.344-0.39,0.884-0.106,1.281
			l0.672,0.945c-0.186,0.354-0.334,0.719-0.447,1.1l-1.116,0.188c-0.479,0.081-0.831,0.495-0.831,0.981v1.416
			c0,0.487,0.35,0.899,0.831,0.979l1.144,0.196c0.117,0.377,0.272,0.743,0.461,1.092l-0.664,0.922
			c-0.282,0.396-0.238,0.938,0.107,1.28l1.001,1.001c0.188,0.188,0.438,0.292,0.703,0.292c0.208,0,0.407-0.063,0.574-0.185
			l0.944-0.673c0.34,0.179,0.697,0.325,1.062,0.438l0.188,1.13c0.082,0.479,0.494,0.829,0.981,0.829h1.419
			c0.487,0,0.901-0.35,0.98-0.829l0.191-1.13c0.379-0.117,0.747-0.269,1.096-0.455l0.932,0.667c0.168,0.121,0.371,0.185,0.579,0.185
			l0,0c0.266,0,0.515-0.104,0.702-0.292l1.002-1c0.343-0.344,0.39-0.884,0.107-1.282l-0.666-0.933
			c0.185-0.354,0.338-0.722,0.453-1.098l1.129-0.188c0.481-0.08,0.83-0.494,0.83-0.981v-1.416
			C22.084,29.068,21.733,28.655,21.252,28.573z M21.176,30.969c0,0.044-0.03,0.08-0.074,0.087l-1.412,0.235
			c-0.179,0.031-0.318,0.161-0.363,0.333c-0.127,0.494-0.322,0.968-0.584,1.409c-0.091,0.153-0.085,0.346,0.021,0.494l0.829,1.17
			c0.023,0.033,0.02,0.083-0.01,0.113l-1.002,1.002c-0.022,0.023-0.047,0.026-0.063,0.026c-0.021,0-0.037-0.006-0.052-0.016
			l-1.166-0.831c-0.145-0.104-0.34-0.11-0.494-0.021c-0.44,0.262-0.914,0.458-1.408,0.585c-0.175,0.044-0.307,0.188-0.333,0.363
			l-0.239,1.412c-0.007,0.044-0.043,0.075-0.087,0.075h-1.416c-0.044,0-0.081-0.031-0.087-0.075l-0.236-1.412
			c-0.029-0.179-0.16-0.319-0.332-0.363c-0.48-0.124-0.944-0.314-1.377-0.563c-0.07-0.039-0.151-0.062-0.229-0.062
			c-0.091,0-0.185,0.028-0.263,0.084l-1.176,0.837C9.604,35.863,9.586,35.87,9.57,35.87c-0.014,0-0.041-0.003-0.064-0.027l-1-1.003
			c-0.031-0.029-0.034-0.076-0.012-0.113l0.827-1.158c0.105-0.148,0.111-0.343,0.021-0.497c-0.263-0.438-0.466-0.912-0.593-1.406
			c-0.047-0.172-0.188-0.302-0.362-0.333l-1.423-0.243c-0.043-0.006-0.073-0.043-0.073-0.086v-1.416c0-0.043,0.03-0.081,0.073-0.087
			l1.402-0.235c0.178-0.029,0.322-0.162,0.366-0.335c0.124-0.494,0.315-0.973,0.574-1.413c0.091-0.153,0.081-0.346-0.022-0.489
			L8.447,25.85c-0.023-0.032-0.02-0.084,0.01-0.114l1.002-1.001c0.023-0.024,0.047-0.027,0.063-0.027
			c0.021,0,0.038,0.007,0.052,0.016l1.158,0.828c0.148,0.104,0.344,0.111,0.498,0.021c0.438-0.263,0.911-0.464,1.404-0.593
			c0.172-0.047,0.303-0.188,0.332-0.361l0.244-1.421c0.006-0.044,0.043-0.075,0.086-0.075h1.416c0.043,0,0.08,0.03,0.086,0.075
			l0.236,1.4c0.03,0.179,0.161,0.323,0.336,0.366c0.506,0.128,0.991,0.326,1.441,0.592c0.154,0.09,0.346,0.083,0.495-0.021
			l1.159-0.833c0.017-0.01,0.033-0.018,0.051-0.018c0.014,0,0.041,0.003,0.062,0.026l1.002,1.002c0.03,0.03,0.033,0.078,0.012,0.114
			l-0.831,1.167c-0.104,0.146-0.11,0.338-0.021,0.494c0.263,0.44,0.458,0.914,0.585,1.408c0.045,0.175,0.188,0.307,0.364,0.333
			l1.411,0.239c0.044,0.006,0.074,0.042,0.074,0.085V30.969L21.176,30.969L21.176,30.969z"/>
		<path fill="#34495E" d="M14.032,26.787c-1.915,0-3.472,1.557-3.472,3.472s1.557,3.472,3.472,3.472
			c1.916,0,3.474-1.558,3.474-3.472C17.504,28.344,15.948,26.787,14.032,26.787z M14.032,32.824c-1.415,0-2.565-1.149-2.565-2.564
			s1.15-2.563,2.565-2.563c1.416,0,2.565,1.149,2.565,2.563S15.448,32.824,14.032,32.824z"/>
	</g>
</g>
<g>
	<path fill="#34495E" d="M385.279,13.806c-2.781,0-5.052,2.267-5.052,5.051c0,2.787,2.271,5.056,5.052,5.056
		c2.788,0,5.053-2.269,5.053-5.056C390.332,16.073,388.067,13.806,385.279,13.806z M385.279,22.466c-1.989,0-3.605-1.62-3.605-3.609
		c0-1.988,1.616-3.608,3.605-3.608c1.992,0,3.609,1.62,3.609,3.608C388.889,20.846,387.271,22.466,385.279,22.466z"/>
	<path fill="#34495E" d="M394.938,9.199c-2.614-2.615-6.089-4.057-9.784-4.057c-3.699,0-7.174,1.44-9.788,4.057
		c-4.84,4.835-5.439,13.938-1.303,19.451l11.091,16.015l11.071-15.993C400.38,23.137,399.776,14.034,394.938,9.199z M395.055,27.828
		l-9.9,14.302l-9.92-14.322c-3.752-5.003-3.215-13.226,1.151-17.591c2.343-2.342,5.456-3.631,8.769-3.631s6.423,1.29,8.766,3.631
		C398.285,14.582,398.824,22.805,395.055,27.828z"/>
</g>
<g>
	<g>
		<path fill="#34495E" d="M471.589,14.571c0.306,0,0.557-0.234,0.557-0.521v-2.692c0-0.288-0.251-0.521-0.557-0.521h-32.514
			c-0.306,0-0.557,0.232-0.557,0.521v2.692c0,0.287,0.251,0.521,0.557,0.521h1.057v16.179h-1.057c-0.306,0-0.557,0.233-0.557,0.521
			v2.694c0,0.287,0.251,0.519,0.557,0.519h15.698v1.602l-6.086,5.767c-0.217,0.206-0.213,0.533,0.007,0.734
			c0.218,0.205,0.573,0.198,0.787-0.003l2.159-2.047h7.381l2.159,2.047c0.216,0.201,0.567,0.208,0.789,0.003
			c0.22-0.201,0.224-0.528,0.007-0.734l-6.088-5.767v-1.602h15.697c0.307,0,0.558-0.231,0.558-0.519V31.27
			c0-0.287-0.251-0.521-0.558-0.521h-1.058V14.571H471.589z M457.929,39.495h-5.191l2.595-2.459L457.929,39.495z M471.031,31.79
			v1.653h-31.395V31.79h1.055h29.283H471.031z M441.248,30.749V14.571h28.17v16.179H441.248z M439.637,13.531v-1.655h31.395v1.655
			C469.357,13.531,441.188,13.531,439.637,13.531z"/>
	</g>
</g>
<g id="Desktop_2_">
	<path fill="#34495E" d="M518.799,29.73h-1.756c-0.243,0-0.438,0.196-0.438,0.44c0,0.245,0.195,0.44,0.438,0.44h1.756
		c0.244,0,0.438-0.195,0.438-0.44C519.239,29.926,519.043,29.73,518.799,29.73z"/>
	<path fill="#34495E" d="M530.214,12.614h-24.585c-0.972,0-1.759,0.784-1.759,1.754v16.682c0,0.968,0.787,1.754,1.759,1.754h9.218
		v3.515h-0.877c-0.244,0-0.438,0.195-0.438,0.438c0,0.243,0.193,0.44,0.438,0.44h7.9c0.243,0,0.438-0.197,0.438-0.44
		c0-0.242-0.195-0.438-0.438-0.438h-0.877v-3.515h9.22c0.971,0,1.759-0.787,1.759-1.754V14.368
		C531.972,13.398,531.184,12.614,530.214,12.614z M520.116,36.319h-4.389v-3.515h4.389V36.319z M531.091,31.049
		c0,0.483-0.396,0.875-0.877,0.875h-24.585c-0.483,0-0.882-0.391-0.882-0.875V14.368c0-0.485,0.396-0.877,0.882-0.877h24.585
		c0.481,0,0.877,0.392,0.877,0.877V31.049z"/>
	<path fill="#34495E" d="M528.457,15.247h-21.071c-0.483,0-0.877,0.393-0.877,0.877v11.414c0,0.482,0.394,0.876,0.877,0.876h21.071
		c0.486,0,0.882-0.394,0.882-0.876V16.124C529.337,15.64,528.943,15.247,528.457,15.247z M528.457,27.538h-21.071V16.124h21.071
		V27.538z"/>
</g>
<g>
	<path fill="#34495E" d="M573.768,27.528l-4.422-2.565c-0.124-0.072-0.28-0.078-0.409-0.012c-0.128,0.063-0.208,0.188-0.208,0.32
		v5.133c0,0.134,0.08,0.256,0.208,0.322c0.061,0.03,0.128,0.042,0.194,0.042c0.072,0,0.147-0.02,0.215-0.056l4.422-2.567
		c0.115-0.066,0.186-0.184,0.186-0.309C573.953,27.71,573.883,27.594,573.768,27.528z M569.531,29.737v-3.798l3.271,1.897
		L569.531,29.737z"/>
	<path fill="#34495E" d="M581.993,19.406h-4.02h-14.472h-4.021c-0.223,0-0.402,0.163-0.402,0.365v4.034v4.03v4.034v4.031
		c0,0.202,0.182,0.366,0.402,0.366h4.021h14.472h4.02c0.225,0,0.402-0.164,0.402-0.366V31.87v-4.034v-4.03v-4.034
		C582.396,19.569,582.216,19.406,581.993,19.406z M563.1,27.471h-3.216V24.17h3.216V27.471z M559.884,28.203h3.216v3.299h-3.216
		V28.203z M563.903,31.869v-4.034v-4.03v-3.667h13.669v3.667v4.03v4.034v3.664h-13.669V31.869z M581.593,27.471h-3.216V24.17h3.216
		V27.471z M578.377,28.203h3.216v3.299h-3.216V28.203z M581.593,20.139v3.299h-3.216v-3.299H581.593z M559.884,20.139h3.216v3.299
		h-3.216V20.139z M559.884,35.533v-3.296h3.216v3.296H559.884z M581.593,35.533h-3.216v-3.296h3.216V35.533z"/>
</g>
<g>
	<path fill="#34495E" d="M622.388,27.478v-3.163c0-1.773-1.476-3.218-3.286-3.218c-1.812,0-3.285,1.443-3.285,3.218v3.163h-2.365
		v7.215v2.219h11.564v-2.219v-7.215H622.388z M616.343,24.315c0-1.468,1.235-2.663,2.759-2.663c1.521,0,2.761,1.195,2.761,2.663
		v3.163h-5.52V24.315L616.343,24.315z M624.491,36.355h-10.515v-1.107h10.515V36.355z M613.977,34.693v-6.66h1.84h6.571h2.104v6.66
		H613.977z"/>
	<path fill="#34495E" d="M619.234,29.698c-0.58,0-1.051,0.499-1.051,1.11v1.663c0,0.612,0.471,1.111,1.051,1.111
		c0.579,0,1.051-0.499,1.051-1.111v-1.663C620.285,30.196,619.813,29.698,619.234,29.698z M619.76,32.471
		c0,0.307-0.235,0.556-0.525,0.556c-0.291,0-0.525-0.249-0.525-0.556v-1.663c0-0.306,0.234-0.556,0.525-0.556
		c0.29,0,0.525,0.25,0.525,0.556V32.471z"/>
</g>
</svg>
