<?xml version="1.0" encoding="utf-8"?>
<!-- Generator: Adobe Illustrator 16.0.0, SVG Export Plug-In . SVG Version: 6.00 Build 0)  -->
<!DOCTYPE svg PUBLIC "-//W3C//DTD SVG 1.1//EN" "http://www.w3.org/Graphics/SVG/1.1/DTD/svg11.dtd">
<svg version="1.1" id="Layer_1" xmlns="http://www.w3.org/2000/svg" xmlns:xlink="http://www.w3.org/1999/xlink" x="0px" y="0px"
	 width="1082.911px" height="928.035px" viewBox="0 0 1082.911 928.035" enable-background="new 0 0 1082.911 928.035"
	 xml:space="preserve">
<g>
	<path fill="#F1F0EF" d="M344,866.891C344,877.02,338.451,886,331.098,886H53.643C46.289,886,40,877.02,40,866.891V753.795
		C40,743.664,46.289,736,53.643,736h277.455c7.354,0,12.902,7.664,12.902,17.795V866.891z"/>
	<path fill="#DEDDDF" d="M182,770.734c0,4.012-2.732,7.266-6.617,7.266H62.645C58.76,778,55,774.746,55,770.734v-0.469
		c0-4.014,3.76-7.266,7.645-7.266h112.738c3.885,0,6.617,3.252,6.617,7.266V770.734z"/>
	<path fill="#DEDDDF" d="M235,811.734c0,4.012-4.27,7.266-9.785,7.266H65.178C59.662,819,55,815.746,55,811.734v-0.469
		c0-4.014,4.662-7.266,10.178-7.266h160.037c5.516,0,9.785,3.252,9.785,7.266V811.734z"/>
	<path fill="#DEDDDF" d="M198,852.734c0,4.012-2.643,7.266-7.031,7.266H63.584c-4.391,0-8.584-3.254-8.584-7.266v-0.469
		c0-4.014,4.193-7.266,8.584-7.266h127.385c4.389,0,7.031,3.252,7.031,7.266V852.734z"/>
	<circle fill="#DEDDDF" cx="320.735" cy="811.137" r="7.692"/>
</g>
</svg>
