<?xml version="1.0" encoding="utf-8"?>
<!-- Generator: Adobe Illustrator 16.0.0, SVG Export Plug-In . SVG Version: 6.00 Build 0)  -->
<!DOCTYPE svg PUBLIC "-//W3C//DTD SVG 1.1//EN" "http://www.w3.org/Graphics/SVG/1.1/DTD/svg11.dtd">
<svg version="1.1" id="Layer_1" xmlns="http://www.w3.org/2000/svg" xmlns:xlink="http://www.w3.org/1999/xlink" x="0px" y="0px"
	 width="501px" height="501px" viewBox="0 0 501 501" enable-background="new 0 0 501 501" xml:space="preserve">
<rect x="287.486" y="-0.121" fill="#F1F3F6" width="213" height="501"/>
<circle fill="#DEDEDE" cx="483.97" cy="16.212" r="6.061"/>
<rect x="309.486" y="317.879" fill="#67B2E4" width="169" height="36"/>
<rect x="309.486" y="364.879" fill="#33495F" width="169" height="36"/>
<path fill="#DEDEDE" d="M482.486,164.385c0,4.139-3.146,7.494-7.063,7.494H312.58c-3.918,0-7.094-3.355-7.094-7.494v-0.013
	c0-4.139,3.176-7.494,7.094-7.494h162.843c3.918,0,7.063,3.355,7.063,7.494V164.385z"/>
<path fill="#DEDEDE" d="M459.486,192.379c0,4.142-3.357,7.5-7.5,7.5h-116c-4.143,0-7.5-3.358-7.5-7.5l0,0c0-4.142,3.357-7.5,7.5-7.5
	h116C456.129,184.879,459.486,188.237,459.486,192.379L459.486,192.379z"/>
<path fill="#DEDEDE" d="M438.486,220.379c0,4.142-3.357,7.5-7.5,7.5h-74c-4.143,0-7.5-3.358-7.5-7.5l0,0c0-4.142,3.357-7.5,7.5-7.5
	h74C435.129,212.879,438.486,216.237,438.486,220.379L438.486,220.379z"/>
</svg>
