<?xml version="1.0" encoding="utf-8"?>
<!-- Generator: Adobe Illustrator 16.0.0, SVG Export Plug-In . SVG Version: 6.00 Build 0)  -->
<!DOCTYPE svg PUBLIC "-//W3C//DTD SVG 1.1//EN" "http://www.w3.org/Graphics/SVG/1.1/DTD/svg11.dtd">
<svg version="1.1" id="Layer_1" xmlns="http://www.w3.org/2000/svg" xmlns:xlink="http://www.w3.org/1999/xlink" x="0px" y="0px"
	 width="501px" height="501px" viewBox="0 0 501 501" enable-background="new 0 0 501 501" xml:space="preserve">
<rect x="65.5" fill="#F1F3F6" width="370" height="175"/>
<circle fill="#DEDEDE" cx="417.97" cy="16.212" r="6.061"/>
<rect x="97.5" y="126" fill="#33495F" width="88" height="36"/>
<rect x="321.5" y="126" fill="#67B2E4" width="88" height="36"/>
<path fill="#DEDEDE" d="M284.5,40.506c0,4.139-3.354,7.494-7.493,7.494H104.993c-4.138,0-7.493-3.355-7.493-7.494v-0.013
	c0-4.139,3.355-7.494,7.493-7.494h172.014c4.139,0,7.493,3.355,7.493,7.494V40.506z"/>
<path fill="#DEDEDE" d="M409.5,40.5c0,4.142-3.357,7.5-7.5,7.5h-79c-4.143,0-7.5-3.358-7.5-7.5l0,0c0-4.142,3.357-7.5,7.5-7.5h79
	C406.143,33,409.5,36.358,409.5,40.5L409.5,40.5z"/>
<path fill="#DEDEDE" d="M235.5,76.5c0,4.142-3.358,7.5-7.5,7.5H105c-4.142,0-7.5-3.358-7.5-7.5l0,0c0-4.142,3.358-7.5,7.5-7.5h123
	C232.142,69,235.5,72.358,235.5,76.5L235.5,76.5z"/>
</svg>
