<?xml version="1.0" encoding="utf-8"?>
<!-- Generator: Adobe Illustrator 16.0.0, SVG Export Plug-In . SVG Version: 6.00 Build 0)  -->
<!DOCTYPE svg PUBLIC "-//W3C//DTD SVG 1.1//EN" "http://www.w3.org/Graphics/SVG/1.1/DTD/svg11.dtd">
<svg version="1.1" id="Layer_1" xmlns="http://www.w3.org/2000/svg" xmlns:xlink="http://www.w3.org/1999/xlink" x="0px" y="0px"
	 width="1082px" height="928px" viewBox="-134 0 1082 928" enable-background="new -134 0 1082 928" xml:space="preserve">
<g>
	<path fill="#F1F0EF" d="M552-648.11c0,10.129-5.463,19.11-12.817,19.11H261.729c-7.354,0-13.729-8.981-13.729-19.11v-113.096
		c0-10.13,6.374-17.794,13.729-17.794h277.454c7.354,0,12.817,7.665,12.817,17.794V-648.11z"/>
	<path fill="#DEDDDF" d="M390-744.265c0,4.012-2.647,7.265-6.532,7.265H270.729c-3.885,0-7.729-3.253-7.729-7.265v-0.47
		c0-4.013,3.845-7.265,7.729-7.265h112.738c3.885,0,6.532,3.252,6.532,7.265L390-744.265L390-744.265z"/>
	<path fill="#DEDDDF" d="M443-703.265c0,4.012-4.185,7.265-9.699,7.265H273.263c-5.515,0-10.263-3.253-10.263-7.265v-0.47
		c0-4.013,4.748-7.265,10.263-7.265h160.038c5.516,0,9.699,3.252,9.699,7.265V-703.265z"/>
	<path fill="#DEDDDF" d="M406-662.265c0,4.012-2.557,7.265-6.946,7.265H271.669c-4.39,0-8.669-3.253-8.669-7.265v-0.47
		c0-4.013,4.279-7.265,8.669-7.265h127.385c4.391,0,6.946,3.252,6.946,7.265V-662.265L406-662.265z"/>
	<circle fill="#DEDDDF" cx="528.821" cy="-744.864" r="7.692"/>
</g>
<g>
	<path fill="#F1F0EF" d="M1372,739.891c0,10.129-5.463,19.109-12.817,19.109h-277.454c-7.354,0-13.729-8.98-13.729-19.109V626.795
		c0-10.131,6.374-17.795,13.729-17.795h277.454c7.354,0,12.817,7.664,12.817,17.795V739.891z"/>
	<path fill="#DEDDDF" d="M1210,643.734c0,4.012-2.646,7.266-6.532,7.266H1090.73c-3.886,0-7.729-3.254-7.729-7.266v-0.47
		c0-4.014,3.845-7.266,7.729-7.266h112.737c3.886,0,6.532,3.252,6.532,7.266V643.734z"/>
	<path fill="#DEDDDF" d="M1263,684.734c0,4.012-4.186,7.266-9.699,7.266h-160.038c-5.515,0-10.263-3.254-10.263-7.266v-0.47
		c0-4.014,4.748-7.266,10.263-7.266h160.038c5.516,0,9.699,3.252,9.699,7.266V684.734z"/>
	<path fill="#DEDDDF" d="M1226,725.734c0,4.012-2.557,7.266-6.946,7.266h-127.385c-4.39,0-8.669-3.254-8.669-7.266v-0.47
		c0-4.014,4.279-7.266,8.669-7.266h127.385c4.391,0,6.946,3.252,6.946,7.266V725.734z"/>
	<circle fill="#DEDDDF" cx="1348.821" cy="643.137" r="7.692"/>
</g>
<rect x="820" y="-820" fill="#F1F0EF" width="800" height="64"/>
<circle fill="#DEDDDF" cx="1589.821" cy="-801.864" r="7.692"/>
<path fill="#DEDDDF" d="M1502-801.5c0,4.142-3.357,7.5-7.5,7.5h-645c-4.143,0-7.5-3.358-7.5-7.5l0,0c0-4.142,3.357-7.5,7.5-7.5h645
	C1498.643-809,1502-805.642,1502-801.5L1502-801.5z"/>
<path fill="#DEDDDF" d="M1172-778.5c0,4.142-3.061,7.5-6.838,7.5H848.838c-3.777,0-6.838-3.358-6.838-7.5l0,0
	c0-4.142,3.061-7.5,6.838-7.5h316.324C1168.939-786,1172-782.642,1172-778.5L1172-778.5z"/>
<rect x="-134" y="864" fill="#F1F0EF" width="1082" height="64"/>
<circle fill="#DEDDDF" cx="911.821" cy="882.137" r="7.692"/>
<path fill="#DEDDDF" d="M682,882.5c0,4.143-4.011,7.5-8.96,7.5H-97.54c-4.95,0-8.96-3.357-8.96-7.5l0,0c0-4.143,4.01-7.5,8.96-7.5
	h770.58C677.989,875,682,878.357,682,882.5L682,882.5z"/>
<path fill="#DEDDDF" d="M287.75,905.5c0,4.143-3.657,7.5-8.169,7.5H-98.331c-4.512,0-8.169-3.357-8.169-7.5l0,0
	c0-4.143,3.657-7.5,8.169-7.5h377.912C284.093,898,287.75,901.357,287.75,905.5L287.75,905.5z"/>
</svg>
