<?xml version="1.0" encoding="utf-8"?>
<!-- Generator: Adobe Illustrator 16.0.0, SVG Export Plug-In . SVG Version: 6.00 Build 0)  -->
<!DOCTYPE svg PUBLIC "-//W3C//DTD SVG 1.1//EN" "http://www.w3.org/Graphics/SVG/1.1/DTD/svg11.dtd">
<svg version="1.1" id="Layer_1" xmlns="http://www.w3.org/2000/svg" xmlns:xlink="http://www.w3.org/1999/xlink" x="0px" y="0px"
	 width="800px" height="800px" viewBox="0 0 800 800" enable-background="new 0 0 800 800" xml:space="preserve">
<g>
	<path fill="#F1F0EF" d="M553,171.89c0,10.129-5.463,19.11-12.817,19.11H262.729c-7.354,0-13.729-8.981-13.729-19.11V58.794
		C249,48.665,255.374,41,262.729,41h277.454C547.537,41,553,48.665,553,58.794V171.89z"/>
	<path fill="#DEDDDF" d="M391,75.735c0,4.012-2.647,7.265-6.532,7.265H271.729c-3.885,0-7.729-3.253-7.729-7.265v-0.47
		c0-4.013,3.845-7.265,7.729-7.265h112.738c3.885,0,6.532,3.252,6.532,7.265V75.735z"/>
	<path fill="#DEDDDF" d="M444,116.735c0,4.012-4.185,7.265-9.699,7.265H274.263c-5.515,0-10.263-3.253-10.263-7.265v-0.47
		c0-4.013,4.748-7.265,10.263-7.265h160.038c5.515,0,9.699,3.252,9.699,7.265V116.735z"/>
	<path fill="#DEDDDF" d="M407,157.735c0,4.012-2.557,7.265-6.946,7.265H272.669c-4.39,0-8.669-3.253-8.669-7.265v-0.47
		c0-4.013,4.279-7.265,8.669-7.265h127.385c4.39,0,6.946,3.252,6.946,7.265V157.735z"/>
	<circle fill="#DEDDDF" cx="529.821" cy="116.136" r="7.692"/>
</g>
<g>
	<path fill="#F1F0EF" d="M1371,1559.891c0,10.129-5.463,19.109-12.817,19.109h-277.454c-7.354,0-13.729-8.98-13.729-19.109v-113.096
		c0-10.131,6.374-17.795,13.729-17.795h277.454c7.354,0,12.817,7.664,12.817,17.795V1559.891z"/>
	<path fill="#DEDDDF" d="M1209,1463.734c0,4.012-2.647,7.266-6.532,7.266h-112.738c-3.885,0-7.729-3.254-7.729-7.266v-0.469
		c0-4.014,3.845-7.266,7.729-7.266h112.738c3.885,0,6.532,3.252,6.532,7.266V1463.734z"/>
	<path fill="#DEDDDF" d="M1262,1504.734c0,4.012-4.185,7.266-9.699,7.266h-160.038c-5.515,0-10.263-3.254-10.263-7.266v-0.469
		c0-4.014,4.748-7.266,10.263-7.266h160.038c5.515,0,9.699,3.252,9.699,7.266V1504.734z"/>
	<path fill="#DEDDDF" d="M1225,1545.734c0,4.012-2.557,7.266-6.946,7.266h-127.385c-4.39,0-8.669-3.254-8.669-7.266v-0.469
		c0-4.014,4.279-7.266,8.669-7.266h127.385c4.39,0,6.946,3.252,6.946,7.266V1545.734z"/>
	<circle fill="#DEDDDF" cx="1347.821" cy="1504.137" r="7.692"/>
</g>
<g>
	<rect x="820" fill="#F1F0EF" width="800" height="64"/>
	<circle fill="#DEDDDF" cx="1588.821" cy="18.136" r="7.692"/>
	<path fill="#DEDDDF" d="M1502,18.5c0,4.142-3.357,7.5-7.5,7.5h-645c-4.143,0-7.5-3.358-7.5-7.5l0,0c0-4.142,3.357-7.5,7.5-7.5h645
		C1498.643,11,1502,14.358,1502,18.5L1502,18.5z"/>
	<path fill="#DEDDDF" d="M1204,41.5c0,4.142-3.357,7.5-7.5,7.5h-347c-4.143,0-7.5-3.358-7.5-7.5l0,0c0-4.142,3.357-7.5,7.5-7.5h347
		C1200.643,34,1204,37.358,1204,41.5L1204,41.5z"/>
</g>
<g>
	<rect y="1556" fill="#F1F0EF" width="800" height="64"/>
	<circle fill="#DEDDDF" cx="768.821" cy="1574.137" r="7.692"/>
	<path fill="#DEDDDF" d="M682,1574.5c0,4.143-3.357,7.5-7.5,7.5h-645c-4.143,0-7.5-3.357-7.5-7.5l0,0c0-4.143,3.357-7.5,7.5-7.5h645
		C678.643,1567,682,1570.357,682,1574.5L682,1574.5z"/>
	<path fill="#DEDDDF" d="M384,1597.5c0,4.143-3.357,7.5-7.5,7.5h-347c-4.143,0-7.5-3.357-7.5-7.5l0,0c0-4.143,3.357-7.5,7.5-7.5h347
		C380.643,1590,384,1593.357,384,1597.5L384,1597.5z"/>
</g>
</svg>
