<?xml version="1.0" encoding="utf-8"?>
<!-- Generator: Adobe Illustrator 16.0.0, SVG Export Plug-In . SVG Version: 6.00 Build 0)  -->
<!DOCTYPE svg PUBLIC "-//W3C//DTD SVG 1.1//EN" "http://www.w3.org/Graphics/SVG/1.1/DTD/svg11.dtd">
<svg version="1.1" id="Layer_1" xmlns="http://www.w3.org/2000/svg" xmlns:xlink="http://www.w3.org/1999/xlink" x="0px" y="0px"
	 width="1082.911px" height="928.035px" viewBox="0 0 1082.911 928.035" enable-background="new 0 0 1082.911 928.035"
	 xml:space="preserve">
<g>
	<path fill="#F1F0EF" d="M1041.911,171.926c0,10.129-5.55,19.074-12.904,19.074H751.553c-7.354,0-13.642-8.945-13.642-19.074V58.83
		c0-10.131,6.287-17.83,13.642-17.83h277.454c7.354,0,12.904,7.699,12.904,17.83V171.926z"/>
	<path fill="#DEDDDF" d="M879.911,75.77c0,4.012-2.734,7.23-6.619,7.23H760.554c-3.885,0-7.643-3.219-7.643-7.23v-0.469
		c0-4.014,3.758-7.301,7.643-7.301h112.738c3.885,0,6.619,3.287,6.619,7.301V75.77z"/>
	<path fill="#DEDDDF" d="M932.911,116.77c0,4.012-4.271,7.23-9.786,7.23H763.087c-5.515,0-10.176-3.219-10.176-7.23v-0.469
		c0-4.014,4.661-7.301,10.176-7.301h160.038c5.515,0,9.786,3.287,9.786,7.301V116.77z"/>
	<path fill="#DEDDDF" d="M895.911,157.77c0,4.012-2.644,7.23-7.033,7.23H761.493c-4.39,0-8.582-3.219-8.582-7.23v-0.469
		c0-4.014,4.192-7.301,8.582-7.301h127.385c4.39,0,7.033,3.287,7.033,7.301V157.77z"/>
	<circle fill="#DEDDDF" cx="1018.646" cy="116.172" r="7.692"/>
</g>
</svg>
