<?xml version="1.0" encoding="utf-8"?>
<!-- Generator: Adobe Illustrator 16.0.0, SVG Export Plug-In . SVG Version: 6.00 Build 0)  -->
<!DOCTYPE svg PUBLIC "-//W3C//DTD SVG 1.1//EN" "http://www.w3.org/Graphics/SVG/1.1/DTD/svg11.dtd">
<svg version="1.1" id="Layer_1" xmlns="http://www.w3.org/2000/svg" xmlns:xlink="http://www.w3.org/1999/xlink" x="0px" y="0px"
	 width="1082.911px" height="928.035px" viewBox="0 0 1082.911 928.035" enable-background="new 0 0 1082.911 928.035"
	 xml:space="preserve">
<g>
	<path fill="#F1F0EF" d="M345,171.961c0,10.129-5.461,19.074-12.815,19.074H54.73c-7.354,0-13.73-8.945-13.73-19.074V58.865
		c0-10.131,6.376-17.83,13.73-17.83h277.454c7.354,0,12.815,7.699,12.815,17.83V171.961z"/>
	<path fill="#DEDDDF" d="M183,75.805c0,4.012-2.646,7.23-6.53,7.23H63.731c-3.885,0-7.731-3.219-7.731-7.23v-0.469
		c0-4.014,3.847-7.301,7.731-7.301H176.47c3.885,0,6.53,3.287,6.53,7.301V75.805z"/>
	<path fill="#DEDDDF" d="M236,116.805c0,4.012-4.183,7.23-9.697,7.23H66.265c-5.515,0-10.265-3.219-10.265-7.23v-0.469
		c0-4.014,4.75-7.301,10.265-7.301h160.038c5.515,0,9.697,3.287,9.697,7.301V116.805z"/>
	<path fill="#DEDDDF" d="M199,157.805c0,4.012-2.555,7.23-6.944,7.23H64.671c-4.39,0-8.671-3.219-8.671-7.23v-0.469
		c0-4.014,4.281-7.301,8.671-7.301h127.385c4.39,0,6.944,3.287,6.944,7.301V157.805z"/>
	<circle fill="#DEDDDF" cx="321.823" cy="116.207" r="7.692"/>
</g>
</svg>
