<?xml version="1.0" encoding="utf-8"?>
<!-- Generator: Adobe Illustrator 16.0.0, SVG Export Plug-In . SVG Version: 6.00 Build 0)  -->
<!DOCTYPE svg PUBLIC "-//W3C//DTD SVG 1.1//EN" "http://www.w3.org/Graphics/SVG/1.1/DTD/svg11.dtd">
<svg version="1.1" id="Layer_1" xmlns="http://www.w3.org/2000/svg" xmlns:xlink="http://www.w3.org/1999/xlink" x="0px" y="0px"
	 width="800px" height="800px" viewBox="0 0 800 800" enable-background="new 0 0 800 800" xml:space="preserve">
<g>
	<path fill="#F1F0EF" d="M-268,171.89c0,10.129-5.463,19.11-12.817,19.11h-277.454c-7.354,0-13.729-8.981-13.729-19.11V58.794
		C-572,48.665-565.626,41-558.271,41h277.454C-273.463,41-268,48.665-268,58.794V171.89z"/>
	<path fill="#DEDDDF" d="M-430,75.735c0,4.012-2.647,7.265-6.532,7.265h-112.738c-3.885,0-7.729-3.253-7.729-7.265v-0.47
		c0-4.013,3.845-7.265,7.729-7.265h112.738c3.885,0,6.532,3.252,6.532,7.265V75.735z"/>
	<path fill="#DEDDDF" d="M-377,116.735c0,4.012-4.185,7.265-9.699,7.265h-160.038c-5.515,0-10.263-3.253-10.263-7.265v-0.47
		c0-4.013,4.748-7.265,10.263-7.265h160.038c5.515,0,9.699,3.252,9.699,7.265V116.735z"/>
	<path fill="#DEDDDF" d="M-414,157.735c0,4.012-2.557,7.265-6.946,7.265h-127.385c-4.39,0-8.669-3.253-8.669-7.265v-0.47
		c0-4.013,4.279-7.265,8.669-7.265h127.385c4.39,0,6.946,3.252,6.946,7.265V157.735z"/>
	<circle fill="#DEDDDF" cx="-291.179" cy="75.136" r="7.692"/>
</g>
<g>
	<path fill="#F1F0EF" d="M552,1559.891c0,10.129-5.463,19.109-12.817,19.109H261.729c-7.354,0-13.729-8.98-13.729-19.109v-113.096
		c0-10.131,6.374-17.795,13.729-17.795h277.454c7.354,0,12.817,7.664,12.817,17.795V1559.891z"/>
	<path fill="#DEDDDF" d="M390,1463.734c0,4.012-2.647,7.266-6.532,7.266H270.729c-3.885,0-7.729-3.254-7.729-7.266v-0.469
		c0-4.014,3.845-7.266,7.729-7.266h112.738c3.885,0,6.532,3.252,6.532,7.266V1463.734z"/>
	<path fill="#DEDDDF" d="M443,1504.734c0,4.012-4.185,7.266-9.699,7.266H273.263c-5.515,0-10.263-3.254-10.263-7.266v-0.469
		c0-4.014,4.748-7.266,10.263-7.266h160.038c5.515,0,9.699,3.252,9.699,7.266V1504.734z"/>
	<path fill="#DEDDDF" d="M406,1545.734c0,4.012-2.557,7.266-6.946,7.266H271.669c-4.39,0-8.669-3.254-8.669-7.266v-0.469
		c0-4.014,4.279-7.266,8.669-7.266h127.385c4.39,0,6.946,3.252,6.946,7.266V1545.734z"/>
	<circle fill="#DEDDDF" cx="528.821" cy="1463.137" r="7.692"/>
</g>
<rect fill="#F1F0EF" width="800" height="64"/>
<circle fill="#DEDDDF" cx="769.821" cy="18.136" r="7.692"/>
<path fill="#DEDDDF" d="M682,18.5c0,4.142-3.357,7.5-7.5,7.5h-645c-4.143,0-7.5-3.358-7.5-7.5l0,0c0-4.142,3.357-7.5,7.5-7.5h645
	C678.643,11,682,14.358,682,18.5L682,18.5z"/>
<path fill="#DEDDDF" d="M352,41.5c0,4.142-3.061,7.5-6.838,7.5H28.838C25.061,49,22,45.642,22,41.5l0,0c0-4.142,3.061-7.5,6.838-7.5
	h316.324C348.939,34,352,37.358,352,41.5L352,41.5z"/>
<g>
	<rect x="-820" y="1556" fill="#F1F0EF" width="800" height="64"/>
	<circle fill="#DEDDDF" cx="-50.179" cy="1574.137" r="7.692"/>
	<path fill="#DEDDDF" d="M-138,1574.5c0,4.143-3.357,7.5-7.5,7.5h-645c-4.143,0-7.5-3.357-7.5-7.5l0,0c0-4.143,3.357-7.5,7.5-7.5
		h645C-141.357,1567-138,1570.357-138,1574.5L-138,1574.5z"/>
	<path fill="#DEDDDF" d="M-468,1597.5c0,4.143-3.061,7.5-6.838,7.5h-316.324c-3.777,0-6.838-3.357-6.838-7.5l0,0
		c0-4.143,3.061-7.5,6.838-7.5h316.324C-471.061,1590-468,1593.357-468,1597.5L-468,1597.5z"/>
</g>
</svg>
