<?xml version="1.0" encoding="utf-8"?>
<!-- Generator: Adobe Illustrator 16.0.0, SVG Export Plug-In . SVG Version: 6.00 Build 0)  -->
<!DOCTYPE svg PUBLIC "-//W3C//DTD SVG 1.1//EN" "http://www.w3.org/Graphics/SVG/1.1/DTD/svg11.dtd">
<svg version="1.1" id="Layer_1" xmlns="http://www.w3.org/2000/svg" xmlns:xlink="http://www.w3.org/1999/xlink" x="0px" y="0px"
	 width="1082.911px" height="928.035px" viewBox="0 0 1082.911 928.035" enable-background="new 0 0 1082.911 928.035"
	 xml:space="preserve">
<g>
	<path fill="#F1F0EF" d="M1041.911,867.926c0,10.129-5.549,19.109-12.902,19.109H751.554c-7.354,0-13.643-8.98-13.643-19.109V754.83
		c0-10.131,6.289-17.795,13.643-17.795h277.455c7.354,0,12.902,7.664,12.902,17.795V867.926z"/>
	<path fill="#DEDDDF" d="M879.911,771.77c0,4.012-2.732,7.266-6.617,7.266H760.556c-3.885,0-7.645-3.254-7.645-7.266v-0.469
		c0-4.014,3.76-7.266,7.645-7.266h112.738c3.885,0,6.617,3.252,6.617,7.266V771.77z"/>
	<path fill="#DEDDDF" d="M932.911,812.77c0,4.012-4.27,7.266-9.785,7.266H763.089c-5.516,0-10.178-3.254-10.178-7.266v-0.469
		c0-4.014,4.662-7.266,10.178-7.266h160.037c5.516,0,9.785,3.252,9.785,7.266V812.77z"/>
	<path fill="#DEDDDF" d="M895.911,853.77c0,4.012-2.643,7.266-7.031,7.266H761.495c-4.391,0-8.584-3.254-8.584-7.266v-0.469
		c0-4.014,4.193-7.266,8.584-7.266H888.88c4.389,0,7.031,3.252,7.031,7.266V853.77z"/>
	<circle fill="#DEDDDF" cx="1018.646" cy="812.172" r="7.692"/>
</g>
</svg>
